Coordinates
version=1
nRows=4
nColumns=114
inDegrees=yes

Units are S.I. units (second, meters, Newtons, ...)
If the header above contains a line with 'inDegrees', this indicates whether rotational values are in degrees (yes) or radians (no).

endheader 
time	pelvis_tilt	pelvis_list	pelvis_rotation	pelvis_tx	pelvis_ty	pelvis_tz	hip_flexion_l	hip_adduction_l	hip_rotation_l	hip_flexion_r	hip_adduction_r	hip_rotation_r	knee_angle_l	knee_angle_r	ankle_angle_l	ankle_angle_r	subtalar_angle_l	subtalar_angle_r	mtp_angle_l	mtp_angle_r	lumbar_extension	lumbar_bending	lumbar_rotation	arm_flex_l	arm_add_l	arm_rot_l	arm_flex_r	arm_add_r	arm_rot_r	elbow_flex_l	elbow_flex_r	pro_sup_l	pro_sup_r	addbrev_l/activation	addlong_l/activation	addmagDist_l/activation	addmagIsch_l/activation	addmagMid_l/activation	addmagProx_l/activation	bflh_l/activation	bfsh_l/activation	edl_l/activation	ehl_l/activation	fdl_l/activation	fhl_l/activation	gaslat_l/activation	gasmed_l/activation	glmax1_l/activation	glmax2_l/activation	glmax3_l/activation	glmed1_l/activation	glmed2_l/activation	glmed3_l/activation	glmin1_l/activation	glmin2_l/activation	glmin3_l/activation	grac_l/activation	iliacus_l/activation	perbrev_l/activation	perlong_l/activation	piri_l/activation	psoas_l/activation	recfem_l/activation	sart_l/activation	semimem_l/activation	semiten_l/activation	soleus_l/activation	tfl_l/activation	tibant_l/activation	tibpost_l/activation	vasint_l/activation	vaslat_l/activation	vasmed_l/activation	addbrev_r/activation	addlong_r/activation	addmagDist_r/activation	addmagIsch_r/activation	addmagMid_r/activation	addmagProx_r/activation	bflh_r/activation	bfsh_r/activation	edl_r/activation	ehl_r/activation	fdl_r/activation	fhl_r/activation	gaslat_r/activation	gasmed_r/activation	glmax1_r/activation	glmax2_r/activation	glmax3_r/activation	glmed1_r/activation	glmed2_r/activation	glmed3_r/activation	glmin1_r/activation	glmin2_r/activation	glmin3_r/activation	grac_r/activation	iliacus_r/activation	perbrev_r/activation	perlong_r/activation	piri_r/activation	psoas_r/activation	recfem_r/activation	sart_r/activation	semimem_r/activation	semiten_r/activation	soleus_r/activation	tfl_r/activation	tibant_r/activation	tibpost_r/activation	vasint_r/activation	vaslat_r/activation	vasmed_r/activation
          1.45000000	        -13.50111098	          9.70081655	        -46.61187736	          1.22815086	          0.74358249	          0.14231896	         60.05118649	          0.49785595	         -0.44857370	         85.31185160	         -4.31723016	        -31.18600991	         76.60316186	        118.57783527	         29.72639791	         -6.79954789	        -22.04436219	        -32.77915189	        -13.28077300	          0.09712316	        -26.46051843	        -21.03801870	          6.65364546	         -4.59447564	        -45.72423435	        -58.71493481	         39.50053874	        -62.82689791	         -1.78987180	         23.21923358	         36.85911047	         64.88532237	         55.87798071	          0.01133428	          0.01290463	          0.09991957	          0.09002239	          0.01969637	          0.01319324	          0.13095747	          0.01332881	          0.02429400	          0.02506516	          0.04710949	          0.07854122	          0.03019012	          0.02117576	          0.31242833	          0.52797753	          0.21875983	          0.07366835	          0.08992499	          0.15884904	          0.02337862	          0.03379474	          0.06283672	          0.01336261	          0.01083403	          0.01100238	          0.01041350	          0.17467766	          0.01054216	          0.01264614	          0.01229575	          0.21215446	          0.03283981	          0.58399918	          0.02303303	          0.05134101	          0.13573406	          0.26564085	          0.70185120	          0.36549629	          0.01001914	          0.01001324	          0.01005273	          0.01010941	          0.01002857	          0.08796233	          0.07819976	          0.93434666	          0.06655338	          0.03420119	          0.02056706	          0.01510229	          0.16953896	          0.23863486	          0.01001459	          0.01001934	          0.01004663	          0.01000711	          0.01002211	          0.01006462	          0.01001432	          0.01001929	          0.01009087	          0.01002445	          0.01003479	          0.04234390	          0.06086265	          0.01031142	          0.19432153	          0.85935261	          0.99993266	          0.01001894	          0.01004118	          0.01041215	          0.05002526	          0.06488397	          0.01348125	          0.01005749	          0.01002160	          0.01004126	
          1.46000000	        -13.67076101	         10.06156401	        -46.53308920	          1.22693516	          0.74125939	          0.14155571	         60.70229696	          0.49394917	         -0.64337152	         86.31537166	         -4.57303823	        -31.38023647	         76.82658703	        118.34665674	         29.85238465	         -6.74883964	        -21.86331089	        -32.74064492	        -13.25982563	          0.09548158	        -26.73951277	        -21.30512896	          6.53171995	         -4.27248800	        -45.93933239	        -58.98321090	         38.90907000	        -63.17552716	         -3.41490822	         22.57269958	         36.71804247	         63.53054720	         54.40394954	          0.01130754	          0.01291646	          0.11274688	          0.09063481	          0.02079589	          0.01310145	          0.17105986	          0.01358201	          0.02246742	          0.02265564	          0.04076307	          0.06679514	          0.02661218	          0.01958240	          0.33755342	          0.57565859	          0.24133041	          0.06150032	          0.07662195	          0.15837545	          0.02004692	          0.02894527	          0.05671815	          0.01378452	          0.01078541	          0.01201195	          0.01127529	          0.17665951	          0.01050061	          0.01167399	          0.01221633	          0.24078800	          0.05372084	          0.59212643	          0.02343428	          0.04301700	          0.11936064	          0.25020559	          0.68219798	          0.34711293	          0.01001910	          0.01001253	          0.01005447	          0.01011629	          0.01002881	          0.12548604	          0.06518479	          0.89528169	          0.06458130	          0.03381401	          0.02087230	          0.01545614	          0.16359731	          0.23043539	          0.01001434	          0.01001936	          0.01004736	          0.01000721	          0.01002232	          0.01006540	          0.01001454	          0.01001946	          0.01009372	          0.01002431	          0.01003556	          0.04125832	          0.05886347	          0.01030074	          0.17433514	          0.80522134	          0.99993057	          0.01001966	          0.01004195	          0.01044880	          0.06018417	          0.06318471	          0.01376698	          0.01006117	          0.01002299	          0.01004390	
          1.47000000	        -13.85444501	         10.38078544	        -46.42725046	          1.22584494	          0.73897971	          0.14071988	         61.35561674	          0.49798078	         -0.79958297	         87.30084418	         -4.82368646	        -31.53508971	         77.09295575	        118.09235066	         29.94927575	         -6.68472260	        -21.72735069	        -32.71041391	        -13.23819050	          0.09185046	        -27.03910782	        -21.48571878	          6.37489332	         -4.24145440	        -46.19425623	        -58.77016288	         38.66563031	        -63.72149768	         -4.15369353	         21.99764353	         36.40129329	         62.60055075	         53.49991909	          0.01105073	          0.01258085	          0.10223178	          0.08015310	          0.01995791	          0.01299321	          0.20262383	          0.01374818	          0.02062822	          0.02045528	          0.03733187	          0.05972409	          0.02314691	          0.01775769	          0.36525304	          0.64101582	          0.27987040	          0.05134425	          0.06451045	          0.13660126	          0.01717978	          0.02470677	          0.04882047	          0.01362714	          0.01064236	          0.01567529	          0.01498153	          0.17667718	          0.01044572	          0.01149367	          0.01238187	          0.26207715	          0.05359932	          0.59651109	          0.02344769	          0.03605425	          0.12385547	          0.24042712	          0.67002557	          0.33418722	          0.01001934	          0.01001207	          0.01005712	          0.01012546	          0.01002955	          0.16052723	          0.05433932	          0.85394072	          0.06279690	          0.03355560	          0.02108296	          0.01570289	          0.15694111	          0.22139004	          0.01001427	          0.01001963	          0.01004881	          0.01000725	          0.01002260	          0.01006682	          0.01001467	          0.01001956	          0.01009667	          0.01002458	          0.01003599	          0.04039890	          0.05727386	          0.01029739	          0.15794715	          0.73917950	          0.99992838	          0.01002082	          0.01004341	          0.01045875	          0.06249018	          0.06188141	          0.01397703	          0.01006548	          0.01002462	          0.01004698	
          1.48000000	        -14.06524063	         10.69274181	        -46.29217720	          1.22490561	          0.73665963	          0.13993693	         62.03349536	          0.50985290	         -0.93425878	         88.28695847	         -5.06419134	        -31.64679878	         77.39191006	        117.82523944	         30.02664243	         -6.61491949	        -21.62385477	        -32.69552767	        -13.22020945	          0.08743470	        -27.28150842	        -21.60659211	          6.13105700	         -4.50369537	        -46.47048441	        -58.69799583	         38.73204455	        -64.23128618	         -4.37614973	         21.49246647	         35.98187914	         62.26459120	         53.23002772	          0.01095111	          0.01247343	          0.10613525	          0.07508704	          0.02032448	          0.01297720	          0.22000526	          0.01383558	          0.01998133	          0.01960223	          0.03921417	          0.05943912	          0.02155093	          0.01783851	          0.38839093	          0.67657192	          0.31690815	          0.04289786	          0.05460749	          0.12145784	          0.01493926	          0.02130805	          0.04278213	          0.01371539	          0.01057482	          0.01417984	          0.01297188	          0.17123636	          0.01040887	          0.01124177	          0.01238074	          0.26549033	          0.06522094	          0.60000308	          0.02412072	          0.03035868	          0.13432163	          0.23709376	          0.67116225	          0.32692351	          0.01001942	          0.01001161	          0.01005907	          0.01013373	          0.01002984	          0.16360410	          0.04530213	          0.82308814	          0.06102626	          0.03324564	          0.02124450	          0.01591638	          0.14988667	          0.21080375	          0.01001422	          0.01001993	          0.01004985	          0.01000745	          0.01002306	          0.01006836	          0.01001513	          0.01001998	          0.01010039	          0.01002470	          0.01003767	          0.03977658	          0.05604673	          0.01029444	          0.15573898	          0.73134901	          0.99992555	          0.01002186	          0.01004461	          0.01047029	          0.07908736	          0.06011210	          0.01413157	          0.01007019	          0.01002641	          0.01005036	
